<?xml version="1.0" standalone="no"?>
<!DOCTYPE svg PUBLIC "-//W3C//DTD SVG 20010904//EN"
 "http://www.w3.org/TR/2001/REC-SVG-20010904/DTD/svg10.dtd">
<svg version="1.0" xmlns="http://www.w3.org/2000/svg"
 width="500.000000pt" height="500.000000pt" viewBox="0 0 500.000000 500.000000"
 preserveAspectRatio="xMidYMid meet">
<metadata>
Created by potrace 1.11, written by Peter Selinger 2001-2013
</metadata>
<g transform="translate(0.000000,500.000000) scale(0.100000,-0.100000)"
fill="#000000" stroke="none">
<path d="M2328 4686 c-1 -2 -35 -6 -75 -10 -40 -3 -91 -10 -115 -15 -24 -6
-54 -12 -68 -14 -311 -58 -646 -213 -920 -426 -141 -109 -350 -327 -433 -451
-9 -14 -29 -43 -45 -65 -26 -38 -54 -84 -116 -198 -14 -26 -38 -76 -52 -110
-14 -34 -32 -75 -39 -92 -42 -95 -102 -307 -121 -430 -3 -16 -7 -41 -10 -55
-20 -116 -25 -418 -10 -560 20 -194 90 -457 163 -620 73 -164 227 -428 273
-470 3 -3 36 -42 73 -87 174 -210 441 -419 700 -546 137 -67 337 -140 443
-161 10 -3 42 -10 69 -16 68 -16 72 -17 135 -25 30 -4 64 -10 75 -12 49 -12
406 -10 500 2 216 29 462 96 615 167 25 11 65 30 90 41 77 35 252 143 338 206
113 84 131 100 262 231 122 121 225 252 304 385 26 44 52 87 57 95 22 37 84
173 119 261 54 134 108 339 125 476 4 26 9 59 12 73 9 43 11 382 3 445 -5 33
-11 80 -14 105 -28 224 -113 487 -229 710 -285 548 -826 967 -1437 1111 -114
27 -125 29 -173 35 -23 3 -55 7 -72 10 -32 6 -421 15 -427 10z m289 -1058 c17
-2 34 -6 38 -10 4 -4 13 -4 20 -2 7 3 16 1 19 -4 3 -6 15 -8 26 -5 11 3 20 1
20 -5 0 -6 8 -9 18 -7 9 1 23 -3 31 -9 8 -6 16 -10 18 -8 2 1 19 -5 39 -13 20
-8 40 -15 45 -15 5 0 9 -4 9 -10 0 -5 7 -10 15 -10 8 0 37 -13 65 -30 28 -16
55 -30 60 -30 6 0 10 -4 10 -10 0 -5 9 -10 19 -10 11 0 23 -9 26 -20 3 -11 11
-20 16 -20 45 0 304 -301 313 -364 1 -8 7 -20 13 -27 9 -12 33 -76 39 -104 1
-5 9 -30 18 -55 8 -25 17 -63 20 -85 2 -22 5 -40 6 -40 11 0 16 -258 7 -325
-4 -25 -9 -65 -12 -89 -3 -24 -8 -47 -11 -52 -3 -5 -7 -22 -10 -37 -3 -15 -7
-34 -11 -42 -3 -8 -7 -17 -7 -20 -4 -22 -42 -100 -49 -100 -4 0 -6 -3 -3 -8 5
-9 -47 -104 -84 -154 -47 -62 -185 -199 -245 -242 -64 -46 -185 -118 -185
-111 0 3 -18 -5 -40 -16 -21 -11 -45 -22 -52 -23 -7 -2 -38 -10 -68 -19 -56
-17 -75 -20 -165 -33 -59 -8 -772 -12 -784 -4 -9 7 -10 2163 0 2170 8 5 754 3
816 -2z"/>
</g>
</svg>
